<svg version="1.1" xmlns="http://www.w3.org/2000/svg"
     viewBox="0 0 960.2209025398502 388.9003906250001" width="960.2209025398502"
     height="388.9003906250001">
    <!-- svg-source:excalidraw -->

    <defs>
        <style class="style-fonts">
            @font-face {
            font-family: "Virgil";
            src: url("https://excalidraw.com/Virgil.woff2");
            }
            @font-face {
            font-family: "Cascadia";
            src: url("https://excalidraw.com/Cascadia.woff2");
            }
        </style>
    </defs>
    <rect x="0" y="0" width="960.2209025398502" height="388.9003906250001"
          fill="#ffffff"></rect>
    <g stroke-linecap="round"
       transform="translate(714.6540974601498 92.39257812500011) rotate(0 116.44531250000003 137.1171875)">
        <path
            d="M32 0 M32 0 C86.8 -1.43, 138.32 -1.38, 200.89 0 M32 0 C70.04 0.32, 109.16 -0.85, 200.89 0 M200.89 0 C223.16 -1.02, 232.62 8.9, 232.89 32 M200.89 0 C221.29 -0.16, 231.97 11.46, 232.89 32 M232.89 32 C230.61 90.39, 231.2 146.18, 232.89 242.23 M232.89 32 C232.53 98.31, 231.04 166.95, 232.89 242.23 M232.89 242.23 C232.43 264.01, 220.64 274.49, 200.89 274.23 M232.89 242.23 C234.68 265.02, 221.19 275.28, 200.89 274.23 M200.89 274.23 C140.9 272.74, 79.52 272.09, 32 274.23 M200.89 274.23 C164.76 275.23, 130.92 274.8, 32 274.23 M32 274.23 C12.3 274.73, 0.79 264.9, 0 242.23 M32 274.23 C8.62 273.5, 1.22 265.8, 0 242.23 M0 242.23 C-1.31 173.19, -0.83 102.65, 0 32 M0 242.23 C-0.73 191.02, 0.14 139.39, 0 32 M0 32 C-0.15 11.58, 11.94 1.28, 32 0 M0 32 C-0.4 12.76, 12.82 1.18, 32 0"
            stroke="#000000" stroke-width="1" fill="none"></path>
    </g>
    <g stroke-linecap="round">
        <g transform="translate(715.5447224601498 145.7050781250001) rotate(0 117.03754708317109 -0.2555074232439978)">
            <path
                d="M0.56 -0.76 C39.3 -1.1, 193.77 -2.05, 232.41 -1.97 M-0.6 1.46 C38.51 1.24, 195.45 -0.22, 234.68 -0.81"
                stroke="#000000" stroke-width="1" fill="none"></path>
        </g>
    </g>
    <mask></mask>
    <g transform="translate(771.3465818834818 108.58984375000011) rotate(0 51.96996307373047 12)">
        <text x="0" y="0" font-family="Virgil, Segoe UI Emoji" font-size="20px"
              fill="#000000" text-anchor="start" style="white-space: pre;"
              direction="ltr" dominant-baseline="text-before-edge">ErrorData
        </text>
    </g>
    <g stroke-linecap="round" transform="translate(10 10) rotate(0 117.5 52)">
        <path
            d="M26 0 M26 0 C89.95 0.84, 152.44 -0.09, 209 0 M26 0 C89.11 1.46, 152.66 0.19, 209 0 M209 0 C224.54 -0.07, 234.9 10.45, 235 26 M209 0 C225.53 0.91, 234.24 9.08, 235 26 M235 26 C235.37 43.7, 234.88 63.83, 235 78 M235 26 C234.93 42.57, 235.6 57.1, 235 78 M235 78 C234.17 97.29, 227.68 103.42, 209 104 M235 78 C236.74 93.07, 225.3 103.54, 209 104 M209 104 C151.31 102.78, 94.55 102.12, 26 104 M209 104 C171.5 105.81, 133.3 104.63, 26 104 M26 104 C9.34 102.53, -1.25 96.77, 0 78 M26 104 C6.67 106.26, 2.17 97.12, 0 78 M0 78 C-0.71 65.57, 1.36 49.45, 0 26 M0 78 C0.12 60.07, -0.02 42.36, 0 26 M0 26 C0.06 10.2, 8.19 1.56, 26 0 M0 26 C1.46 10.83, 10.94 0.94, 26 0"
            stroke="#000000" stroke-width="1" fill="none"></path>
    </g>
    <g transform="translate(34.920066833496094 38) rotate(0 92.5799331665039 24)">
        <text x="92.5799331665039" y="0" font-family="Virgil, Segoe UI Emoji"
              font-size="20px" fill="#000000" text-anchor="middle"
              style="white-space: pre;" direction="ltr"
              dominant-baseline="text-before-edge">Lattice and error
        </text>
        <text x="92.5799331665039" y="24" font-family="Virgil, Segoe UI Emoji"
              font-size="20px" fill="#000000" text-anchor="middle"
              style="white-space: pre;" direction="ltr"
              dominant-baseline="text-before-edge">config classes
        </text>
    </g>
    <g stroke-linecap="round">
        <g transform="translate(253.5089557926829 51.19730228480921) rotate(0 63.7518107841139 8.104017449333355)">
            <path
                d="M0.1 -0.57 C21.57 2.18, 107.45 12.71, 128.8 15.72 M-1.3 1.75 C20.03 4.69, 106.5 14.47, 127.93 16.77"
                stroke="#000000" stroke-width="1" fill="none"></path>
        </g>
        <g transform="translate(253.5089557926829 51.19730228480921) rotate(0 63.7518107841139 8.104017449333355)">
            <path
                d="M97.83 24.09 C105.99 21, 117.65 20.06, 128.98 16.36 M98.39 24.37 C105.96 22.67, 111.4 20.04, 128.18 16.66"
                stroke="#000000" stroke-width="1" fill="none"></path>
        </g>
        <g transform="translate(253.5089557926829 51.19730228480921) rotate(0 63.7518107841139 8.104017449333355)">
            <path
                d="M100.1 3.69 C107.45 6.7, 118.44 11.84, 128.98 16.36 M100.66 3.97 C107.94 6.73, 112.89 8.55, 128.18 16.66"
                stroke="#000000" stroke-width="1" fill="none"></path>
        </g>
    </g>
    <mask></mask>
    <g stroke-linecap="round"
       transform="translate(396.5556640625 33.1923828125) rotate(0 98.5 42.5)">
        <path
            d="M117.49 -0.16 C131.21 0.37, 146.26 4.41, 157.45 8.35 C168.64 12.29, 178.03 17.96, 184.64 23.47 C191.26 28.98, 196.51 35.33, 197.15 41.4 C197.78 47.47, 194.27 54.37, 188.46 59.9 C182.65 65.43, 172.92 70.69, 162.29 74.6 C151.65 78.52, 138.16 81.72, 124.64 83.39 C111.12 85.05, 95.26 85.65, 81.14 84.58 C67.02 83.52, 51.41 80.84, 39.92 76.97 C28.44 73.11, 19.02 66.88, 12.26 61.41 C5.5 55.94, 0.13 50.07, -0.63 44.17 C-1.4 38.27, 1.78 31.53, 7.67 26.02 C13.56 20.5, 23.67 15.12, 34.71 11.09 C45.74 7.05, 58.62 3.53, 73.85 1.81 C89.08 0.09, 116.12 0.57, 126.08 0.77 C136.04 0.97, 134.23 2.33, 133.6 3.01 M63.73 1.64 C76.1 -0.84, 94.21 0.82, 108.35 1.6 C122.5 2.38, 136.43 3.22, 148.62 6.31 C160.82 9.39, 173.56 15.23, 181.53 20.1 C189.49 24.97, 194.39 29.64, 196.41 35.55 C198.42 41.46, 198.09 49.72, 193.61 55.55 C189.14 61.39, 179.49 66.34, 169.56 70.56 C159.63 74.78, 147.17 78.33, 134.02 80.9 C120.88 83.46, 105.16 86.25, 90.67 85.96 C76.19 85.68, 59.62 82.4, 47.1 79.19 C34.58 75.99, 23.12 71.64, 15.55 66.73 C7.98 61.83, 3.31 55.79, 1.7 49.76 C0.09 43.74, 1.51 36.8, 5.88 30.57 C10.24 24.33, 18.26 17.1, 27.88 12.37 C37.49 7.64, 57.3 3.9, 63.56 2.2 C69.81 0.49, 64.93 1.6, 65.41 2.13"
            stroke="#000000" stroke-width="1" fill="none"></path>
    </g>
    <g transform="translate(432.3357074559571 63.640344612071715) rotate(0 62.56993865966797 12)">
        <text x="62.56993865966797" y="0" font-family="Virgil, Segoe UI Emoji"
              font-size="20px" fill="#000000" text-anchor="middle"
              style="white-space: pre;" direction="ltr"
              dominant-baseline="text-before-edge">from_lattice
        </text>
    </g>
    <g stroke-linecap="round">
        <g transform="translate(603.3909785561104 84.72865039827929) rotate(0 49.91301192249507 31.66667559064939)">
            <path
                d="M0.49 0.55 C17.36 10.92, 83.87 51.85, 100.54 61.9 M-0.71 -0.2 C16.16 10.41, 83.33 53.22, 100.16 63.54"
                stroke="#000000" stroke-width="1" fill="none"></path>
        </g>
        <g transform="translate(603.3909785561104 84.72865039827929) rotate(0 49.91301192249507 31.66667559064939)">
            <path
                d="M71.75 59.08 C78.23 60.42, 83.56 60.43, 101.47 64.94 M70.33 57.27 C77.8 57.78, 84.73 60.43, 99.44 62.92"
                stroke="#000000" stroke-width="1" fill="none"></path>
        </g>
        <g transform="translate(603.3909785561104 84.72865039827929) rotate(0 49.91301192249507 31.66667559064939)">
            <path
                d="M82.65 41.69 C86.45 47.29, 89.13 51.52, 101.47 64.94 M81.22 39.88 C86.11 44.29, 90.57 50.87, 99.44 62.92"
                stroke="#000000" stroke-width="1" fill="none"></path>
        </g>
    </g>
    <mask></mask>
    <g stroke-linecap="round"
       transform="translate(26.261718749999716 145.08007812499997) rotate(0 110.5 50.5)">
        <path
            d="M25.25 0 M25.25 0 C65.49 0.69, 102.52 1.97, 195.75 0 M25.25 0 C70.55 0.49, 114.53 1.39, 195.75 0 M195.75 0 C211.7 -1.69, 220.61 9.75, 221 25.25 M195.75 0 C212.27 -0.5, 219.3 9.77, 221 25.25 M221 25.25 C221.06 43.84, 221.1 65.34, 221 75.75 M221 25.25 C221.47 39.68, 220.79 53.51, 221 75.75 M221 75.75 C219.23 93.38, 212.6 99.46, 195.75 101 M221 75.75 C221.84 94.79, 211.08 99.83, 195.75 101 M195.75 101 C152.3 100.44, 105.66 101.12, 25.25 101 M195.75 101 C132.36 100.88, 69.35 100.32, 25.25 101 M25.25 101 C7.96 100.62, -1.3 91.54, 0 75.75 M25.25 101 C10.18 102.03, 0.38 90.42, 0 75.75 M0 75.75 C-0.76 64.43, 0.7 54.12, 0 25.25 M0 75.75 C0.91 62.86, 1.02 51.82, 0 25.25 M0 25.25 C-0.38 8.49, 7.48 1.2, 25.25 0 M0 25.25 C-1.64 10.35, 7.48 0.39, 25.25 0"
            stroke="#000000" stroke-width="1" fill="none"></path>
    </g>
    <g transform="translate(79.64177703857393 183.58007812499997) rotate(0 57.11994171142578 12)">
        <text x="57.11994171142578" y="0" font-family="Virgil, Segoe UI Emoji"
              font-size="20px" fill="#000000" text-anchor="middle"
              style="white-space: pre;" direction="ltr"
              dominant-baseline="text-before-edge">Dictionaries
        </text>
    </g>
    <g stroke-linecap="round"
       transform="translate(408.291015625 151.72656250000006) rotate(0 85 46)">
        <path
            d="M73.6 -0.08 C84.93 -1.62, 98.66 0.91, 110.39 2.91 C122.13 4.9, 134.85 7.33, 144 11.86 C153.14 16.39, 161 23.79, 165.26 30.1 C169.52 36.41, 170.76 43.09, 169.54 49.7 C168.32 56.32, 164.21 63.92, 157.93 69.8 C151.64 75.68, 141.99 81.33, 131.81 84.98 C121.63 88.62, 108.77 90.78, 96.84 91.69 C84.91 92.61, 72.08 92.45, 60.25 90.47 C48.42 88.49, 35.08 84.59, 25.88 79.81 C16.68 75.03, 9.42 67.88, 5.05 61.78 C0.69 55.67, -1.44 49.72, -0.32 43.19 C0.81 36.66, 5.46 28.61, 11.8 22.59 C18.14 16.57, 26.18 10.72, 37.74 7.08 C49.29 3.44, 72.43 1.81, 81.13 0.75 C89.83 -0.31, 89.93 0.16, 89.95 0.71 M94.18 -0.91 C106.12 -0.83, 119.94 3.65, 130.33 7.47 C140.72 11.29, 150.01 16.62, 156.52 22.02 C163.02 27.41, 168.07 33.66, 169.37 39.85 C170.66 46.04, 167.94 52.89, 164.28 59.16 C160.61 65.44, 155.79 72.34, 147.38 77.51 C138.97 82.69, 125.64 87.87, 113.82 90.21 C102 92.55, 88.75 92.45, 76.45 91.55 C64.14 90.65, 50.4 88.25, 39.99 84.82 C29.59 81.39, 20.36 76.45, 14.03 70.95 C7.7 65.46, 3.41 58.62, 2.01 51.85 C0.62 45.09, 2.01 36.83, 5.65 30.38 C9.28 23.94, 15.57 18.01, 23.82 13.18 C32.07 8.35, 43.76 3.67, 55.17 1.42 C66.59 -0.83, 86.11 -0.33, 92.33 -0.31 C98.55 -0.29, 92.58 0.72, 92.49 1.54"
            stroke="#000000" stroke-width="1" fill="none"></path>
    </g>
    <g transform="translate(445.34698866262 185.69965056541886) rotate(0 47.83995056152344 12)">
        <text x="47.83995056152344" y="0" font-family="Virgil, Segoe UI Emoji"
              font-size="20px" fill="#000000" text-anchor="middle"
              style="white-space: pre;" direction="ltr"
              dominant-baseline="text-before-edge">from_dict
        </text>
    </g>
    <g stroke-linecap="round"
       transform="translate(22.46289062499949 277.9003906250001) rotate(0 116.5 50.5)">
        <path
            d="M25.25 0 M25.25 0 C77.73 -0.56, 129.78 0.42, 207.75 0 M25.25 0 C93.75 0.95, 163.72 -0.11, 207.75 0 M207.75 0 C225.36 1.51, 231.14 6.52, 233 25.25 M207.75 0 C226.68 1.95, 233.23 7.84, 233 25.25 M233 25.25 C233.96 44.25, 232.44 63.51, 233 75.75 M233 25.25 C233.1 40.75, 233.51 55.85, 233 75.75 M233 75.75 C231.45 91.5, 223.02 101.79, 207.75 101 M233 75.75 C232.43 93.67, 223.48 101.53, 207.75 101 M207.75 101 C164.55 100.01, 122.55 103.02, 25.25 101 M207.75 101 C150.21 102.47, 92.93 100.86, 25.25 101 M25.25 101 C7.76 99.45, 0.2 92.46, 0 75.75 M25.25 101 C10.23 103.08, 0.67 93.12, 0 75.75 M0 75.75 C0.84 61.89, 0.8 51.28, 0 25.25 M0 75.75 C-0.43 59.85, -0.17 43.61, 0 25.25 M0 25.25 C-1.56 6.55, 9.38 -1.3, 25.25 0 M0 25.25 C-1.89 6.94, 6.36 -1.4, 25.25 0"
            stroke="#000000" stroke-width="1" fill="none"></path>
    </g>
    <g transform="translate(123.28290557861277 316.4003906250001) rotate(0 15.679985046386719 12)">
        <text x="15.679985046386719" y="0" font-family="Virgil, Segoe UI Emoji"
              font-size="20px" fill="#000000" text-anchor="middle"
              style="white-space: pre;" direction="ltr"
              dominant-baseline="text-before-edge">csv
        </text>
    </g>
    <g stroke-linecap="round"
       transform="translate(404.5839843750001 277.7402343750001) rotate(0 85 46)">
        <path
            d="M104.16 1.69 C115.98 2.39, 129.71 5.86, 139.2 9.97 C148.68 14.08, 155.84 20.22, 161.07 26.34 C166.3 32.45, 170.57 39.93, 170.58 46.68 C170.6 53.43, 166.66 60.79, 161.15 66.84 C155.64 72.89, 147.08 79.12, 137.52 82.99 C127.96 86.86, 115.9 88.89, 103.78 90.05 C91.67 91.21, 76.9 91.36, 64.83 89.95 C52.76 88.54, 40.7 85.5, 31.37 81.58 C22.03 77.65, 13.98 72.37, 8.8 66.4 C3.62 60.42, 0.39 52.5, 0.3 45.72 C0.21 38.94, 2.91 31.63, 8.25 25.7 C13.59 19.77, 22.67 14.2, 32.32 10.17 C41.98 6.13, 52.97 2.74, 66.18 1.47 C79.4 0.21, 103.12 1.95, 111.6 2.55 C120.08 3.15, 117.61 4.34, 117.06 5.1 M65.01 1.84 C75.84 -0.23, 91.22 -1.2, 103.27 -0.04 C115.32 1.12, 127.7 4.33, 137.3 8.81 C146.89 13.3, 155.44 20.62, 160.81 26.88 C166.19 33.13, 169.42 39.77, 169.56 46.34 C169.7 52.91, 167.02 60.33, 161.64 66.28 C156.26 72.23, 146.9 78.16, 137.29 82.02 C127.69 85.89, 115.88 87.75, 104 89.46 C92.11 91.17, 78.09 93.55, 65.96 92.28 C53.84 91.01, 40.62 86.42, 31.25 81.83 C21.87 77.23, 15.07 70.85, 9.71 64.7 C4.35 58.56, -0.55 51.24, -0.91 44.96 C-1.27 38.68, 2.1 32.93, 7.56 27.02 C13.01 21.11, 22.09 14.01, 31.79 9.49 C41.5 4.96, 59.96 0.89, 65.79 -0.11 C71.62 -1.11, 66.52 2.5, 66.75 3.47"
            stroke="#000000" stroke-width="1" fill="none"></path>
    </g>
    <g transform="translate(444.5099525298076 311.71332244041895) rotate(0 44.96995544433594 12)">
        <text x="44.96995544433594" y="0" font-family="Virgil, Segoe UI Emoji"
              font-size="20px" fill="#000000" text-anchor="middle"
              style="white-space: pre;" direction="ltr"
              dominant-baseline="text-before-edge">from_csv
        </text>
    </g>
    <g stroke-linecap="round">
        <g transform="translate(252.52539062499977 197.9150657618218) rotate(0 76.04257479685845 4.2706454995645515)">
            <path
                d="M-1.13 -1.19 C24.22 0.6, 127.41 8.12, 153.22 9.73 M0.48 0.8 C25.59 2.37, 126.87 6.73, 152.34 8.23"
                stroke="#000000" stroke-width="1" fill="none"></path>
        </g>
        <g transform="translate(252.52539062499977 197.9150657618218) rotate(0 76.04257479685845 4.2706454995645515)">
            <path
                d="M121.69 17.29 C136.93 14.94, 146.06 10.6, 152.52 7.24 M123 17.09 C130.99 14.38, 137.75 13.39, 151.41 7.84"
                stroke="#000000" stroke-width="1" fill="none"></path>
        </g>
        <g transform="translate(252.52539062499977 197.9150657618218) rotate(0 76.04257479685845 4.2706454995645515)">
            <path
                d="M122.72 -3.2 C137.38 2.46, 146.12 6.13, 152.52 7.24 M124.02 -3.41 C131.79 -1.27, 138.3 2.6, 151.41 7.84"
                stroke="#000000" stroke-width="1" fill="none"></path>
        </g>
    </g>
    <mask></mask>
    <g stroke-linecap="round">
        <g transform="translate(584.0684921239496 195.63142556078185) rotate(0 58.61559258974199 2.299999085022492)">
            <path
                d="M-0.25 0.6 C19.19 1.32, 97.84 2.81, 117.48 3.18 M1.82 -0.13 C21.12 0.9, 97.82 4.04, 117.09 4.73"
                stroke="#000000" stroke-width="1" fill="none"></path>
        </g>
        <g transform="translate(584.0684921239496 195.63142556078185) rotate(0 58.61559258974199 2.299999085022492)">
            <path
                d="M89.52 15.65 C99.23 12.51, 109.28 8.49, 119.03 4.18 M89.32 14.78 C97.3 10.72, 108.33 6.57, 117.57 4.47"
                stroke="#000000" stroke-width="1" fill="none"></path>
        </g>
        <g transform="translate(584.0684921239496 195.63142556078185) rotate(0 58.61559258974199 2.299999085022492)">
            <path
                d="M90.32 -4.86 C99.54 -0.4, 109.29 3.19, 119.03 4.18 M90.12 -5.72 C97.98 -2.71, 108.73 0.2, 117.57 4.47"
                stroke="#000000" stroke-width="1" fill="none"></path>
        </g>
    </g>
    <mask></mask>
    <g stroke-linecap="round">
        <g transform="translate(258.1972656249998 324.83012291393993) rotate(0 67.29828950374093 0.36299485824117195)">
            <path
                d="M0.88 -0.24 C23.31 -0.17, 112.37 0.53, 134.71 0.97 M-0.12 -1.42 C22.1 -1.24, 111.17 1.84, 133.52 2.14"
                stroke="#000000" stroke-width="1" fill="none"></path>
        </g>
        <g transform="translate(258.1972656249998 324.83012291393993) rotate(0 67.29828950374093 0.36299485824117195)">
            <path
                d="M104.68 10.93 C112.77 8.07, 123.98 4.66, 133.39 2.67 M105.09 11.44 C112.17 9.36, 121.27 6.45, 133.08 1.98"
                stroke="#000000" stroke-width="1" fill="none"></path>
        </g>
        <g transform="translate(258.1972656249998 324.83012291393993) rotate(0 67.29828950374093 0.36299485824117195)">
            <path
                d="M105.19 -9.59 C113.21 -6.04, 124.26 -3.05, 133.39 2.67 M105.61 -9.08 C112.49 -5.35, 121.44 -2.44, 133.08 1.98"
                stroke="#000000" stroke-width="1" fill="none"></path>
        </g>
    </g>
    <mask></mask>
    <g stroke-linecap="round">
        <g transform="translate(584.4471846375459 315.79016471006275) rotate(0 56.3216567486463 -19.19033191353587)">
            <path
                d="M0.05 0.32 C19.2 -5.93, 94.99 -30.54, 114.02 -36.89 M-1.38 -0.56 C17.64 -7.22, 93.68 -32.7, 112.81 -38.7"
                stroke="#000000" stroke-width="1" fill="none"></path>
        </g>
        <g transform="translate(584.4471846375459 315.79016471006275) rotate(0 56.3216567486463 -19.19033191353587)">
            <path
                d="M89.73 -21.05 C95.48 -24.87, 99.48 -28.3, 111.69 -38.14 M88.87 -20.02 C93.44 -25.01, 99.04 -27.73, 113.59 -39.49"
                stroke="#000000" stroke-width="1" fill="none"></path>
        </g>
        <g transform="translate(584.4471846375459 315.79016471006275) rotate(0 56.3216567486463 -19.19033191353587)">
            <path
                d="M83.36 -40.56 C90.68 -39.91, 96.13 -38.87, 111.69 -38.14 M82.51 -39.53 C88.39 -40.47, 95.31 -39.12, 113.59 -39.49"
                stroke="#000000" stroke-width="1" fill="none"></path>
        </g>
    </g>
    <mask></mask>
    <g stroke-linecap="round"
       transform="translate(725.7949218750003 169.74804687499997) rotate(0 100.5 31.5)">
        <path
            d="M15.75 0 M15.75 0 C67.98 -0.06, 119.89 -0.02, 185.25 0 M15.75 0 C77.94 -0.27, 139.89 1.07, 185.25 0 M185.25 0 C195.42 0.36, 199.11 5.25, 201 15.75 M185.25 0 C197.9 -0.35, 201.8 4.74, 201 15.75 M201 15.75 C200.2 24.46, 201.17 34.71, 201 47.25 M201 15.75 C200.73 27.74, 202.05 37.98, 201 47.25 M201 47.25 C200.46 57.53, 196.4 62.57, 185.25 63 M201 47.25 C199.39 57.48, 195.11 62.07, 185.25 63 M185.25 63 C123.73 62.17, 63.65 62.39, 15.75 63 M185.25 63 C120.61 64.39, 56.52 64.53, 15.75 63 M15.75 63 C4.68 61.36, 1.02 55.83, 0 47.25 M15.75 63 C6.73 61.21, -0.04 57.51, 0 47.25 M0 47.25 C0.13 35.28, -0.54 28.63, 0 15.75 M0 47.25 C1.18 34.48, -0.59 22.61, 0 15.75 M0 15.75 C-0.6 3.84, 4.12 0.3, 15.75 0 M0 15.75 C-0.99 6.49, 3.88 1.72, 15.75 0"
            stroke="#000000" stroke-width="1" fill="none"></path>
    </g>
    <g transform="translate(739.5350036621097 189.24804687499997) rotate(0 86.75991821289062 12)">
        <text x="86.75991821289062" y="0" font-family="Virgil, Segoe UI Emoji"
              font-size="20px" fill="#000000" text-anchor="middle"
              style="white-space: pre;" direction="ltr"
              dominant-baseline="text-before-edge">QubitErrors table
        </text>
    </g>
    <g stroke-linecap="round"
       transform="translate(733.7324218750003 254.93750000000006) rotate(0 96.5 40.5)">
        <path
            d="M20.25 0 M20.25 0 C79.07 3.21, 137.48 -0.34, 172.75 0 M20.25 0 C69.82 1.23, 120.09 1.62, 172.75 0 M172.75 0 C185.06 1.5, 192.93 6.85, 193 20.25 M172.75 0 C185.28 -2.08, 191.94 7.34, 193 20.25 M193 20.25 C191.78 32.64, 193.37 43.73, 193 60.75 M193 20.25 C192.99 30.77, 192.38 40.22, 193 60.75 M193 60.75 C193.55 74.04, 186.71 80.24, 172.75 81 M193 60.75 C190.95 72.77, 185.99 79.53, 172.75 81 M172.75 81 C128.67 82.12, 80.25 81.13, 20.25 81 M172.75 81 C138.85 80.97, 104.36 81.11, 20.25 81 M20.25 81 C8.26 82.77, 1.98 73.48, 0 60.75 M20.25 81 C6.15 81.21, 0.67 73.83, 0 60.75 M0 60.75 C-1.9 48.19, -2 34.11, 0 20.25 M0 60.75 C-0.04 48.98, -0.62 38.17, 0 20.25 M0 20.25 C1.57 5.13, 5.92 -1.67, 20.25 0 M0 20.25 C-2.09 4.92, 5.7 -1.31, 20.25 0"
            stroke="#000000" stroke-width="1" fill="none"></path>
    </g>
    <g transform="translate(743.4424896240238 283.43750000000006) rotate(0 86.78993225097656 12)">
        <text x="86.78993225097656" y="0" font-family="Virgil, Segoe UI Emoji"
              font-size="20px" fill="#000000" text-anchor="middle"
              style="white-space: pre;" direction="ltr"
              dominant-baseline="text-before-edge">GateErrors table
        </text>
    </g>
</svg>
