<svg version="1.1" xmlns="http://www.w3.org/2000/svg"
     viewBox="0 0 293.36247546979143 474.5665386361766" width="586.7249509395829"
     height="949.1330772723531">
  <!-- svg-source:excalidraw -->

  <defs>
    <style class="style-fonts">
    </style>
  </defs>
  <g stroke-linecap="round">
    <g
      transform="translate(24.423022344791548 463.65512672082957) rotate(0 -2.863890571882962 -220.57124848679638)">
      <path
        d="M0.42 0.91 C-0.35 -72.51, -4.25 -366.74, -5.39 -440.54 M-0.82 0.34 C-1.65 -73.37, -5.02 -368.56, -6.15 -442.05"
        stroke="#a61e4d" stroke-width="2" fill="none"/>
    </g>
    <g
      transform="translate(24.423022344791548 463.65512672082957) rotate(0 -2.863890571882962 -220.57124848679638)">
      <path
        d="M6 -413.39 C3.9 -421.72, -0.79 -426.18, -7.77 -440.72 M4.64 -414.95 C1.02 -422.26, -0.83 -430.16, -6.13 -441.11"
        stroke="#a61e4d" stroke-width="2" fill="none"/>
    </g>
    <g
      transform="translate(24.423022344791548 463.65512672082957) rotate(0 -2.863890571882962 -220.57124848679638)">
      <path
        d="M-14.52 -413.12 C-11.78 -421.58, -11.63 -426.11, -7.77 -440.72 M-15.88 -414.68 C-13.82 -421.92, -9.99 -429.89, -6.13 -441.11"
        stroke="#a61e4d" stroke-width="2" fill="none"/>
    </g>
  </g>
  <g stroke-linecap="round">
    <g
      transform="translate(211.0529737937254 296.8553471630596) rotate(314.99999999999994 0.022980115827124337 -86.18014430159931)">
      <path
        d="M-0.85 0.26 C-0.73 -28.11, 0.37 -142.05, 0.47 -170.89 M0.9 -0.65 C0.92 -29.31, 0.11 -144.06, -0.23 -172.62"
        stroke="#495057" stroke-width="1" fill="none"/>
    </g>
  </g>
  <g stroke-linecap="round">
    <g
      transform="translate(213.03595384767834 171.4917520845228) rotate(314.99999999999994 -0.5608322672825352 -86.46434858731688)">
      <path
        d="M-1.1 -0.45 C-1.26 -29.14, -0.58 -144.11, -0.45 -172.48 M0.52 -1.73 C0.12 -30.27, -1.34 -142.93, -1.64 -171.39"
        stroke="#495057" stroke-width="1" fill="none"/>
    </g>
  </g>
  <g stroke-linecap="round">
    <g
      transform="translate(124.34345850405214 208.40891235734867) rotate(314.99999999999994 87.11030455380671 0.23155217417979657)">
      <path
        d="M-0.45 -0.85 C28.84 -0.62, 145.46 0.94, 174.67 0.96 M1.51 1.32 C30.71 1.27, 144.81 -0.47, 173.55 -0.66"
        stroke="#495057" stroke-width="1" fill="none"/>
    </g>
  </g>
  <g stroke-linecap="round">
    <g
      transform="translate(-6.170603546302232 83.71866279633167) rotate(314.99999999999994 87.24439855366944 0.10405803852029294)">
      <path
        d="M-0.33 0.96 C28.88 0.97, 145.53 -0.65, 174.82 -0.75 M1.69 0.41 C30.77 0.64, 144.91 0.77, 173.78 0.4"
        stroke="#495057" stroke-width="1" fill="none"/>
    </g>
  </g>
  <g stroke-linecap="round">
    <g
      transform="translate(83.091387452606 295.73655272372275) rotate(314.99999999999994 -0.6563237294694204 -85.87912553210505)">
      <path
        d="M-0.19 -0.75 C-0.06 -29.46, 0.27 -142.75, 0.43 -171.29 M-1.74 1.47 C-1.71 -27.69, -0.66 -144.51, -0.29 -173.23"
        stroke="#495057" stroke-width="1" fill="none"/>
    </g>
  </g>
  <g stroke-linecap="round">
    <g stroke-opacity="0.3" fill-opacity="0.3"
       transform="translate(146.2352025431352 272.82892261087943) rotate(360 0 -125.63671875)">
      <path d="M0 0 C0 -41.88, 0 -209.39, 0 -251.27" stroke="#495057" stroke-width="1.5"
            fill="none" stroke-dasharray="8 9"/></g>
  </g>
  <g stroke-linecap="round"
     transform="translate(137.71815412787498 10) rotate(359.9999999999999 10.005859374999886 10.005859374999886)">
    <path
      d="M20.01 10.01 C20.01 10.59, 19.96 11.17, 19.86 11.74 C19.76 12.31, 19.61 12.88, 19.41 13.43 C19.21 13.97, 18.96 14.51, 18.67 15.01 C18.38 15.51, 18.04 15.99, 17.67 16.44 C17.3 16.88, 16.88 17.3, 16.44 17.67 C15.99 18.04, 15.51 18.38, 15.01 18.67 C14.51 18.96, 13.97 19.21, 13.43 19.41 C12.88 19.61, 12.31 19.76, 11.74 19.86 C11.17 19.96, 10.59 20.01, 10.01 20.01 C9.43 20.01, 8.84 19.96, 8.27 19.86 C7.7 19.76, 7.13 19.61, 6.58 19.41 C6.04 19.21, 5.5 18.96, 5 18.67 C4.5 18.38, 4.02 18.04, 3.57 17.67 C3.13 17.3, 2.71 16.88, 2.34 16.44 C1.97 15.99, 1.63 15.51, 1.34 15.01 C1.05 14.51, 0.8 13.97, 0.6 13.43 C0.41 12.88, 0.25 12.31, 0.15 11.74 C0.05 11.17, 0 10.59, 0 10.01 C0 9.43, 0.05 8.84, 0.15 8.27 C0.25 7.7, 0.41 7.13, 0.6 6.58 C0.8 6.04, 1.05 5.5, 1.34 5 C1.63 4.5, 1.97 4.02, 2.34 3.57 C2.71 3.13, 3.13 2.71, 3.57 2.34 C4.02 1.97, 4.5 1.63, 5 1.34 C5.5 1.05, 6.04 0.8, 6.58 0.6 C7.13 0.41, 7.7 0.25, 8.27 0.15 C8.84 0.05, 9.43 0, 10.01 0 C10.59 0, 11.17 0.05, 11.74 0.15 C12.31 0.25, 12.88 0.41, 13.43 0.6 C13.97 0.8, 14.51 1.05, 15.01 1.34 C15.51 1.63, 15.99 1.97, 16.44 2.34 C16.88 2.71, 17.3 3.13, 17.67 3.57 C18.04 4.02, 18.38 4.5, 18.67 5 C18.96 5.5, 19.21 6.04, 19.41 6.58 C19.61 7.13, 19.76 7.7, 19.86 8.27 C19.96 8.84, 19.99 9.72, 20.01 10.01 C20.04 10.3, 20.04 9.72, 20.01 10.01"
      stroke="none" stroke-width="0" fill="#4c6ef5"/>
    <path
      d="M20.01 10.01 C20.01 10.59, 19.96 11.17, 19.86 11.74 C19.76 12.31, 19.61 12.88, 19.41 13.43 C19.21 13.97, 18.96 14.51, 18.67 15.01 C18.38 15.51, 18.04 15.99, 17.67 16.44 C17.3 16.88, 16.88 17.3, 16.44 17.67 C15.99 18.04, 15.51 18.38, 15.01 18.67 C14.51 18.96, 13.97 19.21, 13.43 19.41 C12.88 19.61, 12.31 19.76, 11.74 19.86 C11.17 19.96, 10.59 20.01, 10.01 20.01 C9.43 20.01, 8.84 19.96, 8.27 19.86 C7.7 19.76, 7.13 19.61, 6.58 19.41 C6.04 19.21, 5.5 18.96, 5 18.67 C4.5 18.38, 4.02 18.04, 3.57 17.67 C3.13 17.3, 2.71 16.88, 2.34 16.44 C1.97 15.99, 1.63 15.51, 1.34 15.01 C1.05 14.51, 0.8 13.97, 0.6 13.43 C0.41 12.88, 0.25 12.31, 0.15 11.74 C0.05 11.17, 0 10.59, 0 10.01 C0 9.43, 0.05 8.84, 0.15 8.27 C0.25 7.7, 0.41 7.13, 0.6 6.58 C0.8 6.04, 1.05 5.5, 1.34 5 C1.63 4.5, 1.97 4.02, 2.34 3.57 C2.71 3.13, 3.13 2.71, 3.57 2.34 C4.02 1.97, 4.5 1.63, 5 1.34 C5.5 1.05, 6.04 0.8, 6.58 0.6 C7.13 0.41, 7.7 0.25, 8.27 0.15 C8.84 0.05, 9.43 0, 10.01 0 C10.59 0, 11.17 0.05, 11.74 0.15 C12.31 0.25, 12.88 0.41, 13.43 0.6 C13.97 0.8, 14.51 1.05, 15.01 1.34 C15.51 1.63, 15.99 1.97, 16.44 2.34 C16.88 2.71, 17.3 3.13, 17.67 3.57 C18.04 4.02, 18.38 4.5, 18.67 5 C18.96 5.5, 19.21 6.04, 19.41 6.58 C19.61 7.13, 19.76 7.7, 19.86 8.27 C19.96 8.84, 19.99 9.72, 20.01 10.01 C20.04 10.3, 20.04 9.72, 20.01 10.01"
      stroke="#495057" stroke-width="1" fill="none"/>
  </g>
  <g stroke-linecap="round"
     transform="translate(138.1601562499992 263.89393537787373) rotate(359.9999999999999 9.533203125000057 9.533203125000057)">
    <path
      d="M19.07 9.53 C19.07 10.09, 19.02 10.65, 18.92 11.19 C18.83 11.73, 18.68 12.28, 18.49 12.79 C18.3 13.31, 18.07 13.82, 17.79 14.3 C17.51 14.78, 17.19 15.24, 16.84 15.66 C16.48 16.08, 16.08 16.48, 15.66 16.84 C15.24 17.19, 14.78 17.51, 14.3 17.79 C13.82 18.07, 13.31 18.3, 12.79 18.49 C12.28 18.68, 11.73 18.83, 11.19 18.92 C10.65 19.02, 10.09 19.07, 9.53 19.07 C8.98 19.07, 8.42 19.02, 7.88 18.92 C7.33 18.83, 6.79 18.68, 6.27 18.49 C5.75 18.3, 5.24 18.07, 4.77 17.79 C4.29 17.51, 3.83 17.19, 3.41 16.84 C2.98 16.48, 2.59 16.08, 2.23 15.66 C1.88 15.24, 1.55 14.78, 1.28 14.3 C1 13.82, 0.76 13.31, 0.57 12.79 C0.39 12.28, 0.24 11.73, 0.14 11.19 C0.05 10.65, 0 10.09, 0 9.53 C0 8.98, 0.05 8.42, 0.14 7.88 C0.24 7.33, 0.39 6.79, 0.57 6.27 C0.76 5.75, 1 5.24, 1.28 4.77 C1.55 4.29, 1.88 3.83, 2.23 3.41 C2.59 2.98, 2.98 2.59, 3.41 2.23 C3.83 1.88, 4.29 1.55, 4.77 1.28 C5.24 1, 5.75 0.76, 6.27 0.57 C6.79 0.39, 7.33 0.24, 7.88 0.14 C8.42 0.05, 8.98 0, 9.53 0 C10.09 0, 10.65 0.05, 11.19 0.14 C11.73 0.24, 12.28 0.39, 12.79 0.57 C13.31 0.76, 13.82 1, 14.3 1.28 C14.78 1.55, 15.24 1.88, 15.66 2.23 C16.08 2.59, 16.48 2.98, 16.84 3.41 C17.19 3.83, 17.51 4.29, 17.79 4.77 C18.07 5.24, 18.3 5.75, 18.49 6.27 C18.68 6.79, 18.83 7.33, 18.92 7.88 C19.02 8.42, 19.04 9.26, 19.07 9.53 C19.09 9.81, 19.09 9.26, 19.07 9.53"
      stroke="none" stroke-width="0" fill="#4c6ef5"/>
    <path
      d="M19.07 9.53 C19.07 10.09, 19.02 10.65, 18.92 11.19 C18.83 11.73, 18.68 12.28, 18.49 12.79 C18.3 13.31, 18.07 13.82, 17.79 14.3 C17.51 14.78, 17.19 15.24, 16.84 15.66 C16.48 16.08, 16.08 16.48, 15.66 16.84 C15.24 17.19, 14.78 17.51, 14.3 17.79 C13.82 18.07, 13.31 18.3, 12.79 18.49 C12.28 18.68, 11.73 18.83, 11.19 18.92 C10.65 19.02, 10.09 19.07, 9.53 19.07 C8.98 19.07, 8.42 19.02, 7.88 18.92 C7.33 18.83, 6.79 18.68, 6.27 18.49 C5.75 18.3, 5.24 18.07, 4.77 17.79 C4.29 17.51, 3.83 17.19, 3.41 16.84 C2.98 16.48, 2.59 16.08, 2.23 15.66 C1.88 15.24, 1.55 14.78, 1.28 14.3 C1 13.82, 0.76 13.31, 0.57 12.79 C0.39 12.28, 0.24 11.73, 0.14 11.19 C0.05 10.65, 0 10.09, 0 9.53 C0 8.98, 0.05 8.42, 0.14 7.88 C0.24 7.33, 0.39 6.79, 0.57 6.27 C0.76 5.75, 1 5.24, 1.28 4.77 C1.55 4.29, 1.88 3.83, 2.23 3.41 C2.59 2.98, 2.98 2.59, 3.41 2.23 C3.83 1.88, 4.29 1.55, 4.77 1.28 C5.24 1, 5.75 0.76, 6.27 0.57 C6.79 0.39, 7.33 0.24, 7.88 0.14 C8.42 0.05, 8.98 0, 9.53 0 C10.09 0, 10.65 0.05, 11.19 0.14 C11.73 0.24, 12.28 0.39, 12.79 0.57 C13.31 0.76, 13.82 1, 14.3 1.28 C14.78 1.55, 15.24 1.88, 15.66 2.23 C16.08 2.59, 16.48 2.98, 16.84 3.41 C17.19 3.83, 17.51 4.29, 17.79 4.77 C18.07 5.24, 18.3 5.75, 18.49 6.27 C18.68 6.79, 18.83 7.33, 18.92 7.88 C19.02 8.42, 19.04 9.26, 19.07 9.53 C19.09 9.81, 19.09 9.26, 19.07 9.53"
      stroke="#495057" stroke-width="1" fill="none"/>
  </g>
  <g stroke-linecap="round">
    <g stroke-opacity="0.3" fill-opacity="0.3"
       transform="translate(22.058736724763662 147.51497860851117) rotate(360 128.109375 0)">
      <path d="M0 0 C42.7 0, 213.52 0, 256.22 0" stroke="#495057" stroke-width="1.5"
            fill="none" stroke-dasharray="8 9"/>
    </g>
  </g>
  <g stroke-linecap="round"
     transform="translate(10 135.9564353778757) rotate(270 10.998046875 10.998046875)">
    <path
      d="M22 11 C22 11.63, 21.94 12.28, 21.83 12.91 C21.72 13.53, 21.55 14.16, 21.33 14.76 C21.12 15.36, 20.84 15.95, 20.52 16.5 C20.2 17.05, 19.83 17.58, 19.42 18.07 C19.01 18.56, 18.56 19.01, 18.07 19.42 C17.58 19.83, 17.05 20.2, 16.5 20.52 C15.95 20.84, 15.36 21.12, 14.76 21.33 C14.16 21.55, 13.53 21.72, 12.91 21.83 C12.28 21.94, 11.63 22, 11 22 C10.36 22, 9.72 21.94, 9.09 21.83 C8.46 21.72, 7.83 21.55, 7.24 21.33 C6.64 21.12, 6.05 20.84, 5.5 20.52 C4.95 20.2, 4.42 19.83, 3.93 19.42 C3.44 19.01, 2.98 18.56, 2.57 18.07 C2.16 17.58, 1.79 17.05, 1.47 16.5 C1.16 15.95, 0.88 15.36, 0.66 14.76 C0.45 14.16, 0.28 13.53, 0.17 12.91 C0.06 12.28, 0 11.63, 0 11 C0 10.36, 0.06 9.72, 0.17 9.09 C0.28 8.46, 0.45 7.83, 0.66 7.24 C0.88 6.64, 1.16 6.05, 1.47 5.5 C1.79 4.95, 2.16 4.42, 2.57 3.93 C2.98 3.44, 3.44 2.98, 3.93 2.57 C4.42 2.16, 4.95 1.79, 5.5 1.47 C6.05 1.16, 6.64 0.88, 7.24 0.66 C7.83 0.45, 8.46 0.28, 9.09 0.17 C9.72 0.06, 10.36 0, 11 0 C11.63 0, 12.28 0.06, 12.91 0.17 C13.53 0.28, 14.16 0.45, 14.76 0.66 C15.36 0.88, 15.95 1.16, 16.5 1.47 C17.05 1.79, 17.58 2.16, 18.07 2.57 C18.56 2.98, 19.01 3.44, 19.42 3.93 C19.83 4.42, 20.2 4.95, 20.52 5.5 C20.84 6.05, 21.12 6.64, 21.33 7.24 C21.55 7.83, 21.72 8.46, 21.83 9.09 C21.94 9.72, 21.97 10.68, 22 11 C22.02 11.32, 22.02 10.68, 22 11"
      stroke="none" stroke-width="0" fill="#4c6ef5"/>
    <path
      d="M22 11 C22 11.63, 21.94 12.28, 21.83 12.91 C21.72 13.53, 21.55 14.16, 21.33 14.76 C21.12 15.36, 20.84 15.95, 20.52 16.5 C20.2 17.05, 19.83 17.58, 19.42 18.07 C19.01 18.56, 18.56 19.01, 18.07 19.42 C17.58 19.83, 17.05 20.2, 16.5 20.52 C15.95 20.84, 15.36 21.12, 14.76 21.33 C14.16 21.55, 13.53 21.72, 12.91 21.83 C12.28 21.94, 11.63 22, 11 22 C10.36 22, 9.72 21.94, 9.09 21.83 C8.46 21.72, 7.83 21.55, 7.24 21.33 C6.64 21.12, 6.05 20.84, 5.5 20.52 C4.95 20.2, 4.42 19.83, 3.93 19.42 C3.44 19.01, 2.98 18.56, 2.57 18.07 C2.16 17.58, 1.79 17.05, 1.47 16.5 C1.16 15.95, 0.88 15.36, 0.66 14.76 C0.45 14.16, 0.28 13.53, 0.17 12.91 C0.06 12.28, 0 11.63, 0 11 C0 10.36, 0.06 9.72, 0.17 9.09 C0.28 8.46, 0.45 7.83, 0.66 7.24 C0.88 6.64, 1.16 6.05, 1.47 5.5 C1.79 4.95, 2.16 4.42, 2.57 3.93 C2.98 3.44, 3.44 2.98, 3.93 2.57 C4.42 2.16, 4.95 1.79, 5.5 1.47 C6.05 1.16, 6.64 0.88, 7.24 0.66 C7.83 0.45, 8.46 0.28, 9.09 0.17 C9.72 0.06, 10.36 0, 11 0 C11.63 0, 12.28 0.06, 12.91 0.17 C13.53 0.28, 14.16 0.45, 14.76 0.66 C15.36 0.88, 15.95 1.16, 16.5 1.47 C17.05 1.79, 17.58 2.16, 18.07 2.57 C18.56 2.98, 19.01 3.44, 19.42 3.93 C19.83 4.42, 20.2 4.95, 20.52 5.5 C20.84 6.05, 21.12 6.64, 21.33 7.24 C21.55 7.83, 21.72 8.46, 21.83 9.09 C21.94 9.72, 21.97 10.68, 22 11 C22.02 11.32, 22.02 10.68, 22 11"
      stroke="#495057" stroke-width="1" fill="none"/>
  </g>
  <g stroke-linecap="round"
     transform="translate(265.56190412787464 137.1757812499969) rotate(270 8.857421875000114 8.857421875000114)">
    <path
      d="M17.71 8.86 C17.71 9.37, 17.67 9.89, 17.58 10.4 C17.49 10.9, 17.36 11.41, 17.18 11.89 C17.01 12.37, 16.78 12.84, 16.53 13.29 C16.27 13.73, 15.97 14.16, 15.64 14.55 C15.31 14.94, 14.94 15.31, 14.55 15.64 C14.16 15.97, 13.73 16.27, 13.29 16.53 C12.84 16.78, 12.37 17.01, 11.89 17.18 C11.41 17.36, 10.9 17.49, 10.4 17.58 C9.89 17.67, 9.37 17.71, 8.86 17.71 C8.34 17.71, 7.82 17.67, 7.32 17.58 C6.81 17.49, 6.31 17.36, 5.83 17.18 C5.35 17.01, 4.87 16.78, 4.43 16.53 C3.98 16.27, 3.56 15.97, 3.16 15.64 C2.77 15.31, 2.4 14.94, 2.07 14.55 C1.74 14.16, 1.44 13.73, 1.19 13.29 C0.93 12.84, 0.71 12.37, 0.53 11.89 C0.36 11.41, 0.22 10.9, 0.13 10.4 C0.05 9.89, 0 9.37, 0 8.86 C0 8.34, 0.05 7.82, 0.13 7.32 C0.22 6.81, 0.36 6.31, 0.53 5.83 C0.71 5.35, 0.93 4.87, 1.19 4.43 C1.44 3.98, 1.74 3.56, 2.07 3.16 C2.4 2.77, 2.77 2.4, 3.16 2.07 C3.56 1.74, 3.98 1.44, 4.43 1.19 C4.87 0.93, 5.35 0.71, 5.83 0.53 C6.31 0.36, 6.81 0.22, 7.32 0.13 C7.82 0.05, 8.34 0, 8.86 0 C9.37 0, 9.89 0.05, 10.4 0.13 C10.9 0.22, 11.41 0.36, 11.89 0.53 C12.37 0.71, 12.84 0.93, 13.29 1.19 C13.73 1.44, 14.16 1.74, 14.55 2.07 C14.94 2.4, 15.31 2.77, 15.64 3.16 C15.97 3.56, 16.27 3.98, 16.53 4.43 C16.78 4.87, 17.01 5.35, 17.18 5.83 C17.36 6.31, 17.49 6.81, 17.58 7.32 C17.67 7.82, 17.69 8.6, 17.71 8.86 C17.74 9.11, 17.74 8.6, 17.71 8.86"
      stroke="none" stroke-width="0" fill="#4c6ef5"/>
    <path
      d="M17.71 8.86 C17.71 9.37, 17.67 9.89, 17.58 10.4 C17.49 10.9, 17.36 11.41, 17.18 11.89 C17.01 12.37, 16.78 12.84, 16.53 13.29 C16.27 13.73, 15.97 14.16, 15.64 14.55 C15.31 14.94, 14.94 15.31, 14.55 15.64 C14.16 15.97, 13.73 16.27, 13.29 16.53 C12.84 16.78, 12.37 17.01, 11.89 17.18 C11.41 17.36, 10.9 17.49, 10.4 17.58 C9.89 17.67, 9.37 17.71, 8.86 17.71 C8.34 17.71, 7.82 17.67, 7.32 17.58 C6.81 17.49, 6.31 17.36, 5.83 17.18 C5.35 17.01, 4.87 16.78, 4.43 16.53 C3.98 16.27, 3.56 15.97, 3.16 15.64 C2.77 15.31, 2.4 14.94, 2.07 14.55 C1.74 14.16, 1.44 13.73, 1.19 13.29 C0.93 12.84, 0.71 12.37, 0.53 11.89 C0.36 11.41, 0.22 10.9, 0.13 10.4 C0.05 9.89, 0 9.37, 0 8.86 C0 8.34, 0.05 7.82, 0.13 7.32 C0.22 6.81, 0.36 6.31, 0.53 5.83 C0.71 5.35, 0.93 4.87, 1.19 4.43 C1.44 3.98, 1.74 3.56, 2.07 3.16 C2.4 2.77, 2.77 2.4, 3.16 2.07 C3.56 1.74, 3.98 1.44, 4.43 1.19 C4.87 0.93, 5.35 0.71, 5.83 0.53 C6.31 0.36, 6.81 0.22, 7.32 0.13 C7.82 0.05, 8.34 0, 8.86 0 C9.37 0, 9.89 0.05, 10.4 0.13 C10.9 0.22, 11.41 0.36, 11.89 0.53 C12.37 0.71, 12.84 0.93, 13.29 1.19 C13.73 1.44, 14.16 1.74, 14.55 2.07 C14.94 2.4, 15.31 2.77, 15.64 3.16 C15.97 3.56, 16.27 3.98, 16.53 4.43 C16.78 4.87, 17.01 5.35, 17.18 5.83 C17.36 6.31, 17.49 6.81, 17.58 7.32 C17.67 7.82, 17.69 8.6, 17.71 8.86 C17.74 9.11, 17.74 8.6, 17.71 8.86"
      stroke="#495057" stroke-width="1" fill="none"/>
  </g>
  <g stroke-linecap="round"
     transform="translate(133.85517081393743 133.08563956393684) rotate(0 13.853515625 13.853515625)">
    <path
      d="M6.93 0 L20.78 0 L23.81 0.43 L25.98 1.73 L27.27 3.9 L27.71 6.93 L27.71 20.78 L27.27 23.81 L25.98 25.98 L23.81 27.27 L20.78 27.71 L6.93 27.71 L3.9 27.27 L1.73 25.98 L0.43 23.81 L0 20.78 L0.43 3.9 L1.73 1.73 L3.9 0.43 L6.93 0"
      stroke="none" stroke-width="0" fill="#ced4da"/>
    <path
      d="M6.93 0 M6.93 0 C11.77 0, 16.61 0, 20.78 0 M6.93 0 C9.93 0, 12.94 0, 20.78 0 M20.78 0 C25.4 0, 27.71 2.31, 27.71 6.93 M20.78 0 C25.4 0, 27.71 2.31, 27.71 6.93 M27.71 6.93 C27.71 11.8, 27.71 16.68, 27.71 20.78 M27.71 6.93 C27.71 10.06, 27.71 13.19, 27.71 20.78 M27.71 20.78 C27.71 25.4, 25.4 27.71, 20.78 27.71 M27.71 20.78 C27.71 25.4, 25.4 27.71, 20.78 27.71 M20.78 27.71 C17.16 27.71, 13.55 27.71, 6.93 27.71 M20.78 27.71 C17.15 27.71, 13.52 27.71, 6.93 27.71 M6.93 27.71 C2.31 27.71, 0 25.4, 0 20.78 M6.93 27.71 C2.31 27.71, 0 25.4, 0 20.78 M0 20.78 C0 15.68, 0 10.58, 0 6.93 M0 20.78 C0 17.72, 0 14.67, 0 6.93 M0 6.93 C0 2.31, 2.31 0, 6.93 0 M0 6.93 C0 2.31, 2.31 0, 6.93 0"
      stroke="#495057" stroke-width="1" fill="none"/>
  </g>
  <g stroke-linecap="round"
     transform="translate(260.17888171979166 260.9930173458297) rotate(0 11.591796874999886 11.591796874999886)">
    <path
      d="M5.8 0 L17.39 0 L21.73 1.45 L23.18 5.8 L23.18 17.39 L21.73 21.73 L17.39 23.18 L5.8 23.18 L1.45 21.73 L0 17.39 L0.36 3.26 L1.45 1.45 L5.8 0"
      stroke="none" stroke-width="0" fill="#ced4da"/>
    <path
      d="M5.8 0 M5.8 0 C10.2 0, 14.61 0, 17.39 0 M5.8 0 C9.77 0, 13.75 0, 17.39 0 M17.39 0 C21.25 0, 23.18 1.93, 23.18 5.8 M17.39 0 C21.25 0, 23.18 1.93, 23.18 5.8 M23.18 5.8 C23.18 9.99, 23.18 14.19, 23.18 17.39 M23.18 5.8 C23.18 8.79, 23.18 11.79, 23.18 17.39 M23.18 17.39 C23.18 21.25, 21.25 23.18, 17.39 23.18 M23.18 17.39 C23.18 21.25, 21.25 23.18, 17.39 23.18 M17.39 23.18 C12.85 23.18, 8.31 23.18, 5.8 23.18 M17.39 23.18 C13.21 23.18, 9.03 23.18, 5.8 23.18 M5.8 23.18 C1.93 23.18, 0 21.25, 0 17.39 M5.8 23.18 C1.93 23.18, 0 21.25, 0 17.39 M0 17.39 C0 13.34, 0 9.29, 0 5.8 M0 17.39 C0 12.85, 0 8.31, 0 5.8 M0 5.8 C0 1.93, 1.93 0, 5.8 0 M0 5.8 C0 1.93, 1.93 0, 5.8 0"
      stroke="#495057" stroke-width="1" fill="none"/>
  </g>
</svg>
